<svg xmlns="http://www.w3.org/2000/svg" x="0px" y="0px"
            width="50" height="50"
            viewBox="0 0 226 226"
            style=" fill:#000000;"><g fill="none" fill-rule="nonzero" stroke="none" stroke-width="1" stroke-linecap="butt" stroke-linejoin="miter" stroke-miterlimit="10" stroke-dasharray="" stroke-dashoffset="0" font-family="none" font-weight="none" font-size="none" text-anchor="none" style="mix-blend-mode: normal"><path d="M0,226v-226h226v226z" fill="none"></path><g fill="#f1c40f"><path d="M113.0618,4.75836c-1.10762,-0.01451 -2.18201,0.37818 -3.01922,1.10352l-103.96,90.16164c-1.27317,1.04162 -1.88001,2.69263 -1.58448,4.31084c0.29553,1.61821 1.44677,2.94815 3.00592,3.47251c1.55916,0.52437 3.28009,0.16038 4.4934,-0.95038l10.60258,-9.19891v114.26242c0.00025,2.49622 2.02378,4.51975 4.52,4.52h171.76c2.49622,-0.00025 4.51975,-2.02378 4.52,-4.52v-114.25359l10.60258,9.19008c1.21332,1.11076 2.93425,1.47474 4.4934,0.95037c1.55915,-0.52437 2.71039,-1.8543 3.00592,-3.47251c0.29553,-1.6182 -0.31131,-3.26921 -1.58447,-4.31083l-39.11742,-33.92649c-0.00001,-0.02712 0.00001,-0.03391 0,-0.0618c-0.00031,-0.91309 0.0001,-2.277 0,-3.94617c-0.00021,-3.33833 -0.00028,-7.89469 0,-12.48297c0.00056,-9.17656 0,-18.48609 0,-18.48609c-0.00025,-2.49622 -2.02378,-4.51975 -4.52,-4.52h-18.08c-1.20027,0.00012 -2.35122,0.47758 -3.19911,1.32713c-0.84789,0.84955 -1.32311,2.00143 -1.32089,3.2017c0,0 0.00566,5.07898 0.00883,10.16117c0.00026,0.47224 -0.00021,0.82957 0,1.29773l-37.73141,-32.72586c-0.80505,-0.69751 -1.83055,-1.08832 -2.89562,-1.10352zM113,15.26383l38.79078,33.63515c-1.42177,1.89643 -1.13733,4.56899 0.65175,6.1237c1.78907,1.55471 4.47518,1.46355 6.15474,-0.20885l35.82453,31.06617h-162.85242zM162.72,31.64h9.04c-0.00034,3.01404 0.00042,7.03301 0,13.96609c-0.00019,3.18012 -0.00001,5.89745 0,8.65156l-9.03117,-7.83055c0.00137,-0.55361 -0.00049,-1.25919 0,-2.14523c0.00106,-1.91065 0.00141,-4.45793 0,-7.0007c-0.00157,-2.82089 -0.00697,-3.68875 -0.00883,-5.64117zM31.64,94.92h162.72v108.48h-162.72zM58.76,117.52c-2.49622,0.00025 -4.51975,2.02378 -4.52,4.52v54.24c0.00025,2.49622 2.02378,4.51975 4.52,4.52h36.16c2.49622,-0.00025 4.51975,-2.02378 4.52,-4.52v-54.24c-0.00025,-2.49622 -2.02378,-4.51975 -4.52,-4.52zM131.08,117.52c-2.49622,0.00025 -4.51975,2.02378 -4.52,4.52v54.24c0.00025,2.49622 2.02378,4.51975 4.52,4.52h36.16c2.49622,-0.00025 4.51975,-2.02378 4.52,-4.52v-54.24c-0.00025,-2.49622 -2.02378,-4.51975 -4.52,-4.52zM63.28,126.56h27.12v45.2h-27.12zM135.6,126.56h27.12v45.2h-27.12z"></path></g></g></svg>
            