<svg xmlns="http://www.w3.org/2000/svg" x="0px" y="0px"
                width="50" height="50"
                viewBox="0 0 226 226"
                style=" fill:#000000;"><g fill="none" fill-rule="nonzero" stroke="none" stroke-width="1" stroke-linecap="butt" stroke-linejoin="miter" stroke-miterlimit="10" stroke-dasharray="" stroke-dashoffset="0" font-family="none" font-weight="none" font-size="none" text-anchor="none" style="mix-blend-mode: normal"><path d="M0,226v-226h226v226z" fill="none"></path><g fill="#f1c40f"><path d="M141.25,25.425c-11.34414,0 -21.38613,5.62793 -27.54375,14.21328l-28.95625,-5.79346l-59.325,11.86279v147.01035l59.325,-11.86279l56.5,11.3l59.325,-11.86279v-147.01035l-31.78125,6.35625c-6.15762,-8.58535 -16.19961,-14.21328 -27.54375,-14.21328zM141.25,31.075c15.63682,0 28.25,12.61318 28.25,28.25c0,3.44297 -1.76562,9.12607 -4.60166,15.32783c-2.83603,6.21279 -6.67627,13.01045 -10.52754,19.28945c-6.55488,10.71514 -11.32207,17.15967 -13.1208,19.63154c-1.79873,-2.47187 -6.56592,-8.91641 -13.1208,-19.63154c-3.85127,-6.279 -7.6915,-13.07666 -10.52754,-19.28945c-2.83603,-6.20176 -4.60166,-11.88486 -4.60166,-15.32783c0,-15.63682 12.61318,-28.25 28.25,-28.25zM84.75,39.60518l25.92158,5.18652c-2.10771,4.40303 -3.32158,9.32471 -3.32158,14.5333c0,5.14238 2.11875,11.15654 5.10928,17.68936c2.99053,6.52178 6.91904,13.48496 10.83652,19.88535c7.846,12.81182 15.68096,23.42764 15.68096,23.42764l2.27324,3.08984l2.27324,-3.08984c0,0 7.83496,-10.61582 15.68096,-23.42764c3.91748,-6.40039 7.846,-13.36357 10.83652,-19.88535c2.99053,-6.53281 5.10928,-12.54697 5.10928,-17.68936c0,-5.20859 -1.21387,-10.13027 -3.32158,-14.5333l23.09658,-4.62373v135.48965l-53.675,10.73721l-56.5,-11.3l-53.675,10.73721v-135.48965zM84.75,42.375c-1.55596,0 -2.825,1.26904 -2.825,2.825c0,1.55596 1.26904,2.825 2.825,2.825c1.55596,0 2.825,-1.26904 2.825,-2.825c0,-1.55596 -1.26904,-2.825 -2.825,-2.825zM141.25,48.025c-6.21279,0 -11.3,5.08721 -11.3,11.3c0,6.21279 5.08721,11.3 11.3,11.3c6.21279,0 11.3,-5.08721 11.3,-11.3c0,-6.21279 -5.08721,-11.3 -11.3,-11.3zM84.75,53.675c-1.55596,0 -2.825,1.26904 -2.825,2.825c0,1.55596 1.26904,2.825 2.825,2.825c1.55596,0 2.825,-1.26904 2.825,-2.825c0,-1.55596 -1.26904,-2.825 -2.825,-2.825zM141.25,53.675c3.15606,0 5.65,2.49395 5.65,5.65c0,3.15606 -2.49394,5.65 -5.65,5.65c-3.15605,0 -5.65,-2.49394 -5.65,-5.65c0,-3.15605 2.49395,-5.65 5.65,-5.65zM84.75,64.975c-1.55596,0 -2.825,1.26904 -2.825,2.825c0,1.55596 1.26904,2.825 2.825,2.825c1.55596,0 2.825,-1.26904 2.825,-2.825c0,-1.55596 -1.26904,-2.825 -2.825,-2.825zM84.75,76.275c-1.55596,0 -2.825,1.26904 -2.825,2.825c0,1.55596 1.26904,2.825 2.825,2.825c1.55596,0 2.825,-1.26904 2.825,-2.825c0,-1.55596 -1.26904,-2.825 -2.825,-2.825zM84.75,87.575c-1.55596,0 -2.825,1.26904 -2.825,2.825c0,1.55596 1.26904,2.825 2.825,2.825c1.55596,0 2.825,-1.26904 2.825,-2.825c0,-1.55596 -1.26904,-2.825 -2.825,-2.825zM84.75,98.875c-1.55596,0 -2.825,1.26904 -2.825,2.825c0,1.55596 1.26904,2.825 2.825,2.825c1.55596,0 2.825,-1.26904 2.825,-2.825c0,-1.55596 -1.26904,-2.825 -2.825,-2.825zM84.75,110.175c-1.55596,0 -2.825,1.26904 -2.825,2.825c0,1.55596 1.26904,2.825 2.825,2.825c1.55596,0 2.825,-1.26904 2.825,-2.825c0,-1.55596 -1.26904,-2.825 -2.825,-2.825zM84.75,121.475c-1.55596,0 -2.825,1.26904 -2.825,2.825c0,1.55596 1.26904,2.825 2.825,2.825c1.55596,0 2.825,-1.26904 2.825,-2.825c0,-1.55596 -1.26904,-2.825 -2.825,-2.825zM141.25,129.95c-1.55596,0 -2.825,1.26904 -2.825,2.825c0,1.55596 1.26904,2.825 2.825,2.825c1.55596,0 2.825,-1.26904 2.825,-2.825c0,-1.55596 -1.26904,-2.825 -2.825,-2.825zM84.75,132.775c-1.55596,0 -2.825,1.26904 -2.825,2.825c0,1.55596 1.26904,2.825 2.825,2.825c1.55596,0 2.825,-1.26904 2.825,-2.825c0,-1.55596 -1.26904,-2.825 -2.825,-2.825zM141.25,141.25c-1.55596,0 -2.825,1.26904 -2.825,2.825c0,1.55596 1.26904,2.825 2.825,2.825c1.55596,0 2.825,-1.26904 2.825,-2.825c0,-1.55596 -1.26904,-2.825 -2.825,-2.825zM84.75,144.075c-1.55596,0 -2.825,1.26904 -2.825,2.825c0,1.55596 1.26904,2.825 2.825,2.825c1.55596,0 2.825,-1.26904 2.825,-2.825c0,-1.55596 -1.26904,-2.825 -2.825,-2.825zM141.25,152.55c-1.55596,0 -2.825,1.26904 -2.825,2.825c0,1.55596 1.26904,2.825 2.825,2.825c1.55596,0 2.825,-1.26904 2.825,-2.825c0,-1.55596 -1.26904,-2.825 -2.825,-2.825zM84.75,155.375c-1.55596,0 -2.825,1.26904 -2.825,2.825c0,1.55596 1.26904,2.825 2.825,2.825c1.55596,0 2.825,-1.26904 2.825,-2.825c0,-1.55596 -1.26904,-2.825 -2.825,-2.825zM141.25,163.85c-1.55596,0 -2.825,1.26904 -2.825,2.825c0,1.55596 1.26904,2.825 2.825,2.825c1.55596,0 2.825,-1.26904 2.825,-2.825c0,-1.55596 -1.26904,-2.825 -2.825,-2.825zM84.75,166.675c-1.55596,0 -2.825,1.26904 -2.825,2.825c0,1.55596 1.26904,2.825 2.825,2.825c1.55596,0 2.825,-1.26904 2.825,-2.825c0,-1.55596 -1.26904,-2.825 -2.825,-2.825zM141.25,175.15c-1.55596,0 -2.825,1.26904 -2.825,2.825c0,1.55596 1.26904,2.825 2.825,2.825c1.55596,0 2.825,-1.26904 2.825,-2.825c0,-1.55596 -1.26904,-2.825 -2.825,-2.825z"></path></g></g></svg>
                
            