<svg xmlns="http://www.w3.org/2000/svg" x="0px" y="0px"
                width="50" height="50"
                viewBox="0 0 226 226"
                style=" fill:#000000;"><g fill="none" fill-rule="nonzero" stroke="none" stroke-width="1" stroke-linecap="butt" stroke-linejoin="miter" stroke-miterlimit="10" stroke-dasharray="" stroke-dashoffset="0" font-family="none" font-weight="none" font-size="none" text-anchor="none" style="mix-blend-mode: normal"><path d="M0,226v-226h226v226z" fill="none"></path><g fill="#f1c40f"><path d="M40.76828,18.08c-1.1365,-0.02238 -2.23972,0.38423 -3.08984,1.13883l-27.12,24.10961c-1.26969,1.05513 -1.86322,2.7185 -1.54827,4.33906c0.31495,1.62056 1.48828,2.94055 3.06074,3.44333c1.57246,0.50277 3.29395,0.10836 4.49066,-1.02887l24.14492,-21.45234l67.77352,59.29852v56.71187c-0.02305,1.63007 0.83338,3.14629 2.24135,3.96805c1.40797,0.82176 3.14934,0.82176 4.55731,0c1.40797,-0.82176 2.2644,-2.33798 2.24135,-3.96805v-56.71187l67.77352,-59.29852l24.14492,21.45234c1.19671,1.13725 2.91821,1.53168 4.49068,1.02891c1.57247,-0.50277 2.74581,-1.82277 3.06075,-3.44335c0.31494,-1.62057 -0.2786,-3.28395 -1.54831,-4.33908l-27.12,-24.10961c-1.70359,-1.5099 -4.26416,-1.51746 -5.97664,-0.01766l-69.34492,60.6757l-69.34492,-60.6757c-0.80024,-0.70196 -1.82254,-1.099 -2.8868,-1.12117zM42.94,72.32c-7.91,0 -14.41778,3.129 -18.63617,7.87469c-4.21839,4.74569 -6.22383,10.89587 -6.22383,16.98531c0,6.08944 2.00544,12.23963 6.22383,16.98531c4.21839,4.74569 10.72617,7.87469 18.63617,7.87469c7.91,0 14.41778,-3.129 18.63617,-7.87469c4.21839,-4.74569 6.22383,-10.89587 6.22383,-16.98531c0,-6.08944 -2.00544,-12.23963 -6.22383,-16.98531c-4.21839,-4.74569 -10.72618,-7.87469 -18.63617,-7.87469zM183.06883,72.32c-7.91,0 -14.41778,3.129 -18.63617,7.87469c-4.21839,4.74569 -6.22383,10.89587 -6.22383,16.98531c0,6.08944 2.00544,12.23963 6.22383,16.98531c4.21839,4.74569 10.72618,7.87469 18.63617,7.87469c7.91,0 14.40895,-3.129 18.62734,-7.87469c4.21839,-4.74569 6.23266,-10.89587 6.23266,-16.98531c0,-6.08944 -2.01427,-12.23963 -6.23266,-16.98531c-4.21839,-4.74569 -10.71734,-7.87469 -18.62734,-7.87469zM42.94,81.36c5.65,0 9.31222,1.956 11.87383,4.83781c2.56161,2.88181 3.94617,6.90163 3.94617,10.98219c0,4.08056 -1.38457,8.10037 -3.94617,10.98219c-2.56161,2.88181 -6.22383,4.83781 -11.87383,4.83781c-5.65,0 -9.31222,-1.956 -11.87383,-4.83781c-2.56161,-2.88181 -3.94617,-6.90163 -3.94617,-10.98219c0,-4.08056 1.38457,-8.10037 3.94617,-10.98219c2.56161,-2.88181 6.22383,-4.83781 11.87383,-4.83781zM183.06883,81.36c5.65,0 9.31222,1.956 11.87383,4.83781c2.56161,2.88181 3.94617,6.90163 3.94617,10.98219c0,4.08056 -1.38457,8.10037 -3.94617,10.98219c-2.56161,2.88181 -6.22383,4.83781 -11.87383,4.83781c-5.65,0 -9.32105,-1.956 -11.88266,-4.83781c-2.56161,-2.88181 -3.93734,-6.90163 -3.93734,-10.98219c0,-4.08056 1.37574,-8.10037 3.93734,-10.98219c2.56161,-2.88181 6.23266,-4.83781 11.88266,-4.83781zM36.16,131.08c-14.92335,0 -27.12,12.19665 -27.12,27.12v45.2c-0.02305,1.63007 0.83338,3.14629 2.24135,3.96805c1.40797,0.82176 3.14934,0.82176 4.55731,0c1.40797,-0.82176 2.2644,-2.33798 2.24135,-3.96805v-45.2c0,-10.03609 8.04391,-18.08 18.08,-18.08c5.36493,0 10.12774,2.31277 13.43641,5.9943c0.03181,0.03582 0.06418,0.07114 0.09711,0.10594l22.67062,23.60641c0.99735,1.03912 2.43018,1.54078 3.85789,1.3507l29.08867,-3.87555c3.76041,-0.49515 7.12474,2.06818 7.6275,5.82656c0.50109,3.76918 -2.05761,7.11486 -5.82656,7.61867l-33.9,4.52l0.02648,-0.00883c-0.29367,0.03789 -0.61896,0.0618 -0.91813,0.0618c-1.32276,0 -2.61854,-0.39044 -3.72547,-1.12117v0.00883c0.60062,0.39735 -0.19694,-0.14568 -0.66211,-0.47672c-0.46518,-0.33104 -1.11525,-0.79856 -1.88922,-1.35071c-1.1461,-0.81761 -2.67729,-1.90871 -4.15805,-2.96625c-0.31671,-0.30674 -0.67659,-0.56549 -1.0682,-0.76804c-0.13967,-0.09976 -0.24868,-0.17383 -0.38844,-0.27367c-4.05762,-2.89846 -8.07774,-5.77359 -8.07774,-5.77359c-2.03314,-1.45294 -4.85917,-0.98259 -6.31211,1.05055c-1.45294,2.03314 -0.98259,4.85917 1.05055,6.31211c0,0 3.61692,2.57798 7.15078,5.10266v18.33602c-0.02305,1.63007 0.83338,3.14629 2.24135,3.96805c1.40797,0.82176 3.14934,0.82176 4.55731,0c1.40797,-0.82176 2.2644,-2.33798 2.24135,-3.96805v-11.88266c0.08326,0.05876 0.08781,0.07156 0.32664,0.22953c2.59043,1.71007 5.62459,2.61312 8.71336,2.61312c0.68619,0 1.37388,-0.04338 2.06578,-0.13242c0.00883,0.00003 0.01766,0.00003 0.02649,0l33.9,-4.52c8.6068,-1.15051 14.73068,-9.16443 13.58648,-17.77102c0,-0.00294 0,-0.00589 0,-0.00883c-1.15174,-8.60811 -9.16491,-14.71853 -17.76219,-13.58648c-0.00294,0 -0.00589,0 -0.00883,0l-26.82867,3.57539l-20.98445,-21.84961c-4.95368,-5.51215 -12.17649,-8.98703 -20.15461,-8.98703zM189.84,131.08c-7.67496,0 -15.02222,3.27629 -20.0575,8.88109l-21.08156,21.94672l-22.81188,-3.03687c2.1696,2.8024 3.77272,6.09882 4.5818,9.73742l19.30711,2.56899c1.41476,0.1808 2.85445,-0.30658 3.85789,-1.3507l22.76774,-23.71234c3.42164,-3.81488 8.31977,-5.9943 13.43641,-5.9943c9.97112,0 18.08,8.10888 18.08,18.08v45.2c0,2.49956 2.02044,4.52 4.52,4.52c2.49956,0 4.52,-2.02044 4.52,-4.52v-45.2c0,-14.95668 -12.16332,-27.12 -27.12,-27.12zM177.02156,171.8218c-1.14017,-0.18984 -2.35308,0.05572 -3.37234,0.7857c0,0 -4.34724,3.09935 -8.51031,6.07375c-0.36349,0.1919 -0.69911,0.43247 -0.99758,0.71508c-3.22914,2.30656 -6.44719,4.61264 -6.73586,4.81133c-1.34696,0.89044 -2.95375,1.28107 -4.61711,1.05055l-23.11203,-3.08101c-1.09836,3.13236 -2.80431,6.01202 -5.00555,8.45734l26.91695,3.58422c3.80584,0.51528 7.64184,-0.38815 10.7968,-2.47187c0.00198,-0.00132 0.34201,-0.24566 0.3443,-0.24719v11.90031c-0.02305,1.63007 0.83338,3.14629 2.24135,3.96805c1.40797,0.82176 3.14934,0.82176 4.55731,0c1.40797,-0.82176 2.2644,-2.33798 2.24135,-3.96805v-18.35367c2.31808,-1.65288 0.16019,-0.10406 7.14195,-5.09383c2.02948,-1.45092 2.49716,-4.26476 1.04172,-6.30328c-0.72546,-1.01022 -1.79077,-1.63758 -2.93094,-1.82742z"></path></g></g></svg>