 <svg xmlns="http://www.w3.org/2000/svg" x="0px" y="0px"
          width="50" height="50"
          viewBox="0 0 226 226"
          style=" fill:#000000;"><g fill="none" fill-rule="nonzero" stroke="none" stroke-width="1" stroke-linecap="butt" stroke-linejoin="miter" stroke-miterlimit="10" stroke-dasharray="" stroke-dashoffset="0" font-family="none" font-weight="none" font-size="none" text-anchor="none" style="mix-blend-mode: normal"><path d="M0,226v-226h226v226z" fill="none"></path><g fill="#eeb120"><path d="M85.88,9.04c-10.18766,0 -17.72688,4.14922 -22.74125,10.02875c-5.01438,5.87953 -7.87469,13.22453 -10.4525,20.0575c-2.57781,6.83297 -4.90844,13.22453 -8.05125,17.515c-2.50719,3.42531 -5.15563,5.61469 -9.46375,6.35625c-0.60031,-1.55375 -1.43016,-3.01922 -2.5425,-4.2375c2.17172,-2.40125 3.53125,-5.57937 3.53125,-9.04c0,-7.43328 -6.12672,-13.56 -13.56,-13.56c-7.43328,0 -13.56,6.12672 -13.56,13.56c0,3.46062 1.35953,6.63875 3.53125,9.04c-2.17172,2.40125 -3.53125,5.57937 -3.53125,9.04v144.64c0,2.48953 2.03047,4.52 4.52,4.52h18.08c2.48953,0 4.52,-2.03047 4.52,-4.52v-10.4525l51.415,-21.47c1.73031,-0.68859 2.84266,-2.38359 2.825,-4.2375v-162.72c0,-2.48953 -2.03047,-4.52 -4.52,-4.52zM139.2725,9.04c-2.15406,0.40609 -3.70781,2.31297 -3.6725,4.52v162.72c-0.01766,1.85391 1.09469,3.54891 2.825,4.2375l51.415,21.47v10.4525c0,2.48953 2.03047,4.52 4.52,4.52h18.08c2.48953,0 4.52,-2.03047 4.52,-4.52v-144.64c0,-3.46063 -1.35953,-6.63875 -3.53125,-9.04c2.17172,-2.40125 3.53125,-5.57937 3.53125,-9.04c0,-7.43328 -6.12672,-13.56 -13.56,-13.56c-7.43328,0 -13.56,6.12672 -13.56,13.56c0,3.46062 1.35953,6.63875 3.53125,9.04c-1.11234,1.21828 -1.94219,2.68375 -2.5425,4.2375c-4.30812,-0.74156 -6.95656,-2.93094 -9.46375,-6.35625c-3.14281,-4.29047 -5.47344,-10.68203 -8.05125,-17.515c-2.57781,-6.83297 -5.43812,-14.17797 -10.4525,-20.0575c-5.01438,-5.87953 -12.55359,-10.02875 -22.74125,-10.02875c-0.14125,0 -0.2825,0 -0.42375,0c-0.14125,0 -0.2825,0 -0.42375,0zM81.36,18.9275v154.245l-45.2,18.9275v-120.91c6.70938,-1.27125 12.32406,-4.41406 15.82,-9.18125c4.30812,-5.87953 6.65641,-13.04797 9.18125,-19.775c2.52484,-6.72703 5.12031,-12.94203 8.7575,-17.2325c2.78969,-3.28406 6.55047,-5.17328 11.44125,-6.07375zM144.64,18.9275c4.89078,0.90047 8.65156,2.78969 11.44125,6.07375c3.63719,4.29047 6.23266,10.50547 8.7575,17.2325c2.52484,6.72703 4.87313,13.89547 9.18125,19.775c3.49594,4.76719 9.11062,7.91 15.82,9.18125v120.91l-45.2,-18.9275zM22.6,45.2c2.5425,0 4.52,1.9775 4.52,4.52c0,2.5425 -1.9775,4.52 -4.52,4.52c-2.5425,0 -4.52,-1.9775 -4.52,-4.52c0,-2.5425 1.9775,-4.52 4.52,-4.52zM203.4,45.2c2.5425,0 4.52,1.9775 4.52,4.52c0,2.5425 -1.9775,4.52 -4.52,4.52c-2.5425,0 -4.52,-1.9775 -4.52,-4.52c0,-2.5425 1.9775,-4.52 4.52,-4.52zM22.6,63.28c2.45422,0 4.37875,1.81859 4.52,4.2375c0,0.08828 0,0.19422 0,0.2825v131.08c0,0.14125 0,0.2825 0,0.42375v8.61625h-9.04v-140.12c0,-2.56016 1.95984,-4.52 4.52,-4.52zM203.4,63.28c2.56016,0 4.52,1.95984 4.52,4.52v140.12h-9.04v-8.33375c0.01766,-0.22953 0.01766,-0.47672 0,-0.70625v-131.08c0,-0.14125 0,-0.2825 0,-0.42375c0.21187,-2.34828 2.11875,-4.09625 4.52,-4.09625zM72.32,103.96c-2.48953,0 -4.52,4.04328 -4.52,9.04c0,4.99672 2.03047,9.04 4.52,9.04c2.48953,0 4.52,-4.04328 4.52,-9.04c0,-4.99672 -2.03047,-9.04 -4.52,-9.04zM153.68,103.96c-2.48953,0 -4.52,4.04328 -4.52,9.04c0,4.99672 2.03047,9.04 4.52,9.04c2.48953,0 4.52,-4.04328 4.52,-9.04c0,-4.99672 -2.03047,-9.04 -4.52,-9.04z"></path></g></g></svg>
      