<?xml version="1.0" encoding="iso-8859-1"?>
<!-- Generator: Adobe Illustrator 19.0.0, SVG Export Plug-In . SVG Version: 6.00 Build 0)  -->
<svg version="1.1" id="Layer_1" xmlns="http://www.w3.org/2000/svg" xmlns:xlink="http://www.w3.org/1999/xlink" x="0px" y="0px"
	 viewBox="0 0 512.001 512.001" style="enable-background:new 0 0 512.001 512.001;" xml:space="preserve">
<polygon style="fill:#1EB615;" points="292.635,380.933 501.555,380.933 397.094,61.732 "/>
<g>
	<polygon style="fill:#FFFFFF;" points="73.366,331.34 52.045,291.707 30.723,331.34 30.723,456.364 73.366,456.364 	"/>
	<polygon style="fill:#FFFFFF;" points="154.773,331.34 133.453,291.707 112.134,331.34 112.134,456.364 154.773,456.364 	"/>
	<polygon style="fill:#FFFFFF;" points="236.184,331.34 214.865,291.707 193.541,331.34 193.541,456.364 236.184,456.364 	"/>
</g>
<path style="fill:#FFD41D;" d="M73.982,138.232c-1.659-0.167-3.327-0.26-4.997-0.26c-14.689,0-27.865,6.608-36.773,17.014
	c-13.228-10.116-21.768-26.053-21.768-43.992c0-30.572,24.784-55.357,55.357-55.357c27.38,0,50.1,19.88,54.551,45.991
	C99.394,104.302,81.536,118.37,73.982,138.232z"/>
<path style="fill:#10BAFC;" d="M234.817,186.804c0-26.927-21.772-48.833-48.532-48.833c-1.673,0-3.34,0.093-5,0.26
	c-8.417-22.128-29.615-37.073-53.651-37.073c-24.035,0-45.237,14.946-53.652,37.073c-1.659-0.167-3.327-0.26-4.997-0.26
	c-26.764,0-48.536,21.906-48.536,48.833H234.817z"/>
<path d="M397.094,241.726c5.768,0,10.445-4.676,10.445-10.445v-17.756c0-5.768-4.677-10.445-10.445-10.445
	s-10.445,4.677-10.445,10.445v17.756C386.65,237.049,391.327,241.726,397.094,241.726z"/>
<path d="M322.46,445.919h-12.786c-5.769,0-10.445,4.677-10.445,10.445c0,5.768,4.676,10.445,10.445,10.445h12.786
	c5.768,0,10.445-4.677,10.445-10.445C332.905,450.596,328.229,445.919,322.46,445.919z"/>
<path d="M274.162,445.919h-27.533v-24.618h9.621c5.768,0,10.445-4.677,10.445-10.445c0-5.769-4.677-10.445-10.445-10.445h-9.621
	v-29.462h9.621c5.768,0,10.445-4.677,10.445-10.445c0-5.769-4.677-10.445-10.445-10.445h-9.621v-18.719
	c0-1.727-0.428-3.427-1.246-4.948l-21.32-39.633c-1.82-3.385-5.354-5.497-9.199-5.497c-3.844,0-7.377,2.111-9.199,5.496
	l-21.324,39.633c-0.818,1.522-1.246,3.222-1.246,4.949v18.719h-17.878v-18.719c0-1.727-0.428-3.427-1.246-4.948l-21.32-39.633
	c-1.82-3.385-5.354-5.497-9.199-5.497s-7.377,2.111-9.199,5.497l-21.32,39.633c-0.818,1.521-1.246,3.221-1.246,4.948v18.719H83.811
	v-18.719c0-1.727-0.428-3.427-1.246-4.948L61.243,286.76c-1.822-3.385-5.354-5.497-9.199-5.497s-7.377,2.111-9.199,5.497
	l-21.322,39.633c-0.818,1.521-1.246,3.221-1.246,4.948v18.719h-9.621c-5.768,0-10.445,4.676-10.445,10.445
	c0,5.768,4.676,10.445,10.445,10.445h9.621v29.462h-9.621c-5.768,0-10.445,4.676-10.445,10.445c0,5.768,4.676,10.445,10.445,10.445
	h9.621v24.618h-9.621c-5.768,0-10.445,4.677-10.445,10.445c0,5.768,4.676,10.445,10.445,10.445h263.504
	c5.768,0,10.445-4.677,10.445-10.445C284.607,450.596,279.931,445.919,274.162,445.919z M225.74,400.411h-21.754v-29.462h21.754
	V400.411z M203.986,333.972l10.878-20.219l10.876,20.218v16.088h-21.754L203.986,333.972L203.986,333.972z M183.096,370.948v29.462
	h-17.878v-29.462H183.096z M183.096,421.3v24.618h-17.878V421.3H183.096z M144.328,400.411h-21.75v-29.462h21.75V400.411z
	 M122.578,333.971l10.875-20.216l10.875,20.216v16.088h-21.75V333.971z M101.689,370.948v29.462H83.811v-29.462H101.689z
	 M101.689,421.3v24.618H83.811V421.3H101.689z M41.168,333.972l10.877-20.219l10.877,20.219v16.087H41.168V333.972z M41.168,370.948
	h21.754v29.462H41.168V370.948z M41.168,445.919v-24.618h21.754v24.618H41.168z M122.578,445.919v-24.618h21.75v24.618H122.578z
	 M203.986,445.919v-24.618h21.754v24.618H203.986z"/>
<path d="M501.555,445.919h-94.016v-54.541h94.016c3.348,0,6.492-1.604,8.457-4.315c1.965-2.71,2.511-6.198,1.47-9.378
	L407.021,58.483c-1.405-4.293-5.41-7.196-9.927-7.196s-8.522,2.903-9.927,7.196l-104.46,319.203
	c-1.041,3.181-0.495,6.669,1.47,9.378c1.965,2.71,5.11,4.315,8.457,4.315h94.016v54.541h-28.678
	c-5.768,0-10.445,4.677-10.445,10.445c0,5.768,4.677,10.445,10.445,10.445h143.583c5.768,0,10.445-4.677,10.445-10.445
	C512.001,450.596,507.324,445.919,501.555,445.919z M307.042,370.489l90.054-275.176l90.054,275.176H407.54v-7.362l25.372-25.371
	c4.079-4.079,4.079-10.692,0-14.772c-4.079-4.076-10.69-4.078-14.772,0l-10.6,10.6v-66.791c0-5.768-4.677-10.445-10.445-10.445
	c-5.768,0-10.445,4.677-10.445,10.445v30.628l-9.423-9.423c-4.08-4.078-10.691-4.078-14.772,0c-4.079,4.079-4.079,10.692,0,14.772
	l24.195,24.194v43.526H307.042z"/>
<path d="M10.005,186.804c0,5.769,4.676,10.445,10.445,10.445h214.368c5.768,0,10.445-4.676,10.445-10.445
	c0-32.132-25.568-58.374-57.33-59.254c-11.418-22.08-34.422-36.531-59.526-36.822c-8.621-26.867-33.621-45.535-62.605-45.535
	C29.519,45.193,0,74.711,0,110.994c0,17.238,6.583,33.344,18.305,45.515C13.036,165.379,10.005,175.742,10.005,186.804z
	 M171.524,141.945c1.678,4.414,6.116,7.157,10.81,6.678c1.366-0.138,2.695-0.207,3.952-0.207c17.411,0,32.131,11.835,36.655,27.944
	H32.327c4.525-16.109,19.245-27.944,36.659-27.944c1.255,0,2.585,0.069,3.948,0.207c4.711,0.478,9.133-2.264,10.811-6.679
	c6.902-18.149,24.541-30.342,43.889-30.342C146.983,111.603,164.62,123.796,171.524,141.945z M65.801,66.082
	c18.584,0,34.768,11.238,41.539,27.794c-17.065,5.424-31.643,17.502-40.005,33.672c-13.327,0.37-25.553,5.216-35.268,13.078
	c-7.173-8.123-11.178-18.534-11.178-29.632C20.889,86.23,41.037,66.082,65.801,66.082z"/>
<g>
</g>
<g>
</g>
<g>
</g>
<g>
</g>
<g>
</g>
<g>
</g>
<g>
</g>
<g>
</g>
<g>
</g>
<g>
</g>
<g>
</g>
<g>
</g>
<g>
</g>
<g>
</g>
<g>
</g>
</svg>
