<?xml version="1.0" encoding="iso-8859-1"?>
<!-- Generator: Adobe Illustrator 19.0.0, SVG Export Plug-In . SVG Version: 6.00 Build 0)  -->
<svg version="1.1" id="Layer_1" xmlns="http://www.w3.org/2000/svg" xmlns:xlink="http://www.w3.org/1999/xlink" x="0px" y="0px"
	 viewBox="0 0 512 512" style="enable-background:new 0 0 512 512;" xml:space="preserve">
<path style="fill:#8E9A9B;" d="M428.463,493.406H72.758c-23.812,0-43.116-19.304-43.116-43.116V73.027
	c0-23.812,19.304-43.116,43.116-43.116h355.705c23.812,0,43.116,19.304,43.116,43.116V450.29
	C471.579,474.102,452.275,493.406,428.463,493.406z"/>
<path style="fill:#9FBA41;" d="M503.916,482.358c0,11.906-9.651,21.558-21.558,21.558H51.2c-23.812,0-43.116-19.304-43.116-43.116
	V320.674c0-11.906,9.651-21.558,21.558-21.558h474.274V482.358z"/>
<path style="fill:#FF7039;" d="M352.058,195.156c0,88.359-71.629,159.988-159.988,159.988S32.082,283.514,32.082,195.156
	S103.712,35.168,192.07,35.168S352.058,106.797,352.058,195.156z"/>
<path style="fill:#FF8950;" d="M331.453,195.156c0,76.453-61.977,138.43-138.43,138.43S54.592,271.609,54.592,195.156
	s61.978-138.43,138.431-138.43S331.453,118.703,331.453,195.156z"/>
<path style="fill:#A9B9BB;" d="M308.272,197.682c0,64.177-52.026,116.201-116.201,116.201S75.869,261.858,75.869,197.682
	S127.894,81.48,192.07,81.48S308.272,133.506,308.272,197.682z"/>
<path style="fill:#C7D7D8;" d="M286.715,197.682c0,52.27-42.373,94.643-94.643,94.643s-94.643-42.373-94.643-94.643
	s42.373-94.643,94.643-94.643S286.715,145.412,286.715,197.682z"/>
<path style="fill:#FF7039;" d="M222.217,197.682c0,16.649-13.496,30.145-30.145,30.145s-30.145-13.496-30.145-30.145
	s13.496-30.145,30.145-30.145S222.217,181.033,222.217,197.682z"/>
<path style="fill:#FF8950;" d="M200.659,197.682c0,4.743-3.845,8.588-8.588,8.588c-4.743,0-8.588-3.845-8.588-8.588
	c0-4.743,3.845-8.588,8.588-8.588C196.814,189.094,200.659,192.939,200.659,197.682z"/>
<path style="fill:#FFF145;" d="M212.069,21.169v1.999c0,11.045-8.954,19.998-19.998,19.998l0,0
	c-11.045,0-19.998-8.953-19.998-19.998v-1.999c0-5.522,4.477-10,10-10h19.998C207.592,11.17,212.069,15.647,212.069,21.169z
	 M70.079,67.166H50.081c-5.522,0-10,4.476-10,9.999v1.999c0,11.045,8.954,19.998,19.998,19.998l0,0
	c11.045,0,19.998-8.954,19.998-19.998v-1.999C80.079,71.642,75.602,67.166,70.079,67.166z M324.06,99.163
	c11.045,0,19.998-8.954,19.998-19.998v-1.999c0-5.522-4.477-9.999-10-9.999h-19.998c-5.522,0-10,4.476-10,9.999v1.999
	C304.062,90.209,313.015,99.163,324.06,99.163z M70.079,291.149H50.081c-5.522,0-10,4.477-10,10v2
	c0,11.045,8.954,19.998,19.998,19.998l0,0c11.045,0,19.998-8.954,19.998-19.998v-2C80.079,295.626,75.602,291.149,70.079,291.149z
	 M334.059,291.149h-19.998c-5.522,0-10,4.477-10,10v2c0,11.045,8.954,19.998,19.998,19.998c11.045,0,19.998-8.954,19.998-19.998v-2
	C344.059,295.626,339.582,291.149,334.059,291.149z M48.082,191.156v-1.999c0-5.522-4.476-10-10-10H18.084c-5.522,0-10,4.477-10,10
	v1.999c0,11.045,8.954,19.998,19.998,19.998C39.128,211.155,48.082,202.201,48.082,191.156z M366.057,179.157h-19.998
	c-5.522,0-10,4.476-10,10v1.999c0,11.045,8.954,19.998,19.998,19.998c11.044,0,19.998-8.954,19.998-19.998v-1.999
	C376.056,183.634,371.579,179.157,366.057,179.157z"/>
<path style="fill:#606D11;" d="M234.442,466.189L234.442,466.189c0,20.836-16.891,37.726-37.726,37.726H51.2
	c-23.812,0-43.116-19.304-43.116-43.116v-43.116c0-29.765,24.13-53.895,53.895-53.895l0,0c19.16,0,35.973,10.007,45.529,25.07
	c5.951-2.263,12.4-3.512,19.144-3.512l0,0c26.073,0,47.821,18.516,52.815,43.116h17.248
	C217.551,428.463,234.442,445.354,234.442,466.189z"/>
<path style="fill:#7F932A;" d="M133.796,503.916H51.2c-23.812,0-43.116-19.304-43.116-43.116v-43.116
	c0-5.928,4.492-10.779,21.558-10.779l0,0c26.073,0,47.821,18.516,52.815,43.116h17.248c20.836,0,37.726,16.891,37.726,37.726l0,0
	C137.432,493.535,136.125,499.015,133.796,503.916z"/>
<path style="fill:#A03D07;" d="M471.579,24.522v274.863h-32.337V24.522c0-8.929,7.239-16.168,16.168-16.168l0,0
	C464.34,8.354,471.579,15.593,471.579,24.522z"/>
<path style="fill:#FF7039;" d="M493.137,73.027h-75.453c-5.953,0-10.779-4.826-10.779-10.779l0,0
	c0-11.906,9.651-21.558,21.558-21.558h53.895c11.906,0,21.558,9.651,21.558,21.558l0,0C503.916,68.202,499.09,73.027,493.137,73.027
	z"/>
<path style="fill:#FF8950;" d="M367.276,385.078h79.258c16.588,0,33.068,2.674,48.805,7.919l8.577,2.859v97.28
	c0,5.953-4.826,10.779-10.779,10.779H320.674c-5.953,0-10.779-4.826-10.779-10.779v-97.28l8.577-2.859
	C334.209,387.752,350.689,385.078,367.276,385.078z"/>
<path style="fill:#FF7039;" d="M406.905,396.126h97.011v97.01c0,5.953-4.826,10.779-10.779,10.779h-86.232V396.126z"/>
<path style="fill:#A03D07;" d="M406.905,428.463v75.453h-64.674L406.905,428.463z"/>
<path style="fill:#FF8950;" d="M419.901,335.384L419.901,335.384c23.41,26.011,52.036,46.8,84.014,61.012l0,0H309.895l0,0
	c31.978-14.212,60.604-35.001,84.014-61.012l0,0C400.855,327.666,412.955,327.666,419.901,335.384z"/>
<path style="fill:#FFA47B;" d="M406.905,396.396h-97.011l0,0c31.978-14.212,60.604-35.001,84.014-61.012l0,0
	c3.473-3.859,8.235-5.788,12.996-5.788V396.396z"/>
<path d="M229.426,47.608c25.112,6.348,48.266,19.153,67.154,37.067c2.672,12.72,13.978,22.303,27.481,22.303
	c15.485,0,28.083-12.598,28.083-28.082v-1.999c0-9.972-8.111-18.084-18.083-18.084h-19.999c-5.821,0-10.993,2.776-14.303,7.061
	c-19.308-16.129-42.003-27.78-66.37-33.94c-4.33-1.087-8.724,1.528-9.819,5.857C222.474,42.118,225.097,46.513,229.426,47.608z
	 M312.146,76.896c0-1.056,0.859-1.915,1.914-1.915h19.999c1.055,0,1.914,0.859,1.914,1.915v1.999c0,6.57-5.345,11.914-11.915,11.914
	s-11.914-5.344-11.914-11.914v-1.999H312.146z M344.926,30.72v-1.078c0-4.466,3.618-8.084,8.084-8.084
	c4.466,0,8.084,3.618,8.084,8.084v1.078c0,4.466-3.618,8.084-8.084,8.084C348.545,38.804,344.926,35.186,344.926,30.72z
	 M385.347,236.059c4.466,0,8.084,3.618,8.084,8.084v1.078c0,4.466-3.618,8.084-8.084,8.084s-8.084-3.618-8.084-8.084v-1.078
	C377.263,239.677,380.882,236.059,385.347,236.059z M347.913,232.125c-4.286-1.255-8.776,1.204-10.029,5.49
	c-4.742,16.21-12.11,31.393-21.918,45.181h-1.905c-9.972,0-18.083,8.112-18.083,18.084v1.998c0,15.485,12.598,28.083,28.082,28.083
	c15.485,0,28.083-12.598,28.083-28.083v-1.998c0-9.549-7.445-17.374-16.832-18.021c7.822-12.699,13.889-26.336,18.091-40.706
	C354.655,237.868,352.198,233.378,347.913,232.125z M335.974,300.879v1.998c0,6.57-5.345,11.915-11.915,11.915
	s-11.914-5.345-11.914-11.915v-1.998c0-1.056,0.859-1.915,1.914-1.915h19.999C335.115,298.963,335.974,299.822,335.974,300.879z
	 M344.432,123.845c-1.89-4.045-6.699-5.795-10.746-3.903c-4.045,1.888-5.793,6.7-3.903,10.746
	c6.024,12.901,10.163,26.512,12.356,40.557c-8.091,1.797-14.164,9.02-14.164,17.644v1.999c0,15.484,12.598,28.082,28.083,28.082
	c15.485,0,28.083-12.598,28.083-28.082v-1.999c0-9.972-8.112-18.084-18.084-18.084h-7.627
	C356.094,154.525,351.398,138.758,344.432,123.845z M367.973,188.887v1.999c0,6.57-5.345,11.914-11.915,11.914
	s-11.915-5.344-11.915-11.914v-1.999c0-1.056,0.859-1.915,1.915-1.915h19.998C367.114,186.972,367.973,187.831,367.973,188.887z
	 M388.042,149.288v-1.078c0-4.466,3.618-8.084,8.084-8.084c4.466,0,8.084,3.618,8.084,8.084v1.078c0,4.466-3.618,8.084-8.084,8.084
	C391.661,157.373,388.042,153.754,388.042,149.288z M417.684,80.842h75.453c10.401,0,18.863-8.463,18.863-18.863
	c0-16.344-13.298-29.642-29.642-29.642h-2.695v-8.084C479.663,10.88,468.783,0,455.41,0c-13.372,0-24.253,10.88-24.253,24.253v8.084
	h-2.695c-16.344,0-29.642,13.298-29.642,29.642C398.821,72.38,407.284,80.842,417.684,80.842z M447.326,24.253
	c0-4.458,3.626-8.084,8.084-8.084c4.458,0,8.084,3.626,8.084,8.084v8.084h-16.168V24.253z M428.463,48.505h53.895
	c7.43,0,13.474,6.044,13.474,13.474c0,1.486-1.208,2.695-2.695,2.695h-75.453c-1.486,0-2.695-1.208-2.695-2.695
	C414.989,54.549,421.033,48.505,428.463,48.505z M512,342.232c0,4.466-3.618,8.084-8.084,8.084H460.8
	c-4.466,0-8.084-3.618-8.084-8.084s3.618-8.084,8.084-8.084h43.116C508.382,334.147,512,337.766,512,342.232z M506.821,388.589
	l0.001-0.005c-1.022-0.472-4.945-2.306-5.959-2.791c-28.522-13.658-53.718-32.491-74.954-56.086
	c-4.841-5.379-11.768-8.465-19.005-8.465c-7.237,0-14.165,3.085-19.007,8.465c-22.423,24.917-49.261,44.528-79.773,58.336h-13.991
	l-20.693-46.051c5.696-3.163,11.234-6.671,16.591-10.52c3.626-2.605,4.454-7.656,1.849-11.282
	c-2.605-3.625-7.657-4.456-11.282-1.849c-4.469,3.211-9.087,6.141-13.82,8.825l-10.503-23.372
	c35.981-21.798,60.079-61.328,60.079-106.381c0-68.531-55.754-124.287-124.286-124.287S67.784,128.881,67.784,197.412
	c0,45.053,24.097,84.582,60.08,106.381l-10.508,23.386c-5.076-2.879-10.014-6.058-14.787-9.544
	c-3.603-2.632-8.662-1.846-11.296,1.76c-2.633,3.606-1.845,8.663,1.76,11.296c5.69,4.156,11.592,7.92,17.668,11.296l-11.683,25.999
	c-10.53-7.871-23.419-12.281-37.039-12.281c-19.676,0-37.748,9.033-49.579,24.781c-2.682,3.57-1.962,8.637,1.607,11.319
	c3.568,2.682,8.637,1.963,11.319-1.607c8.749-11.646,22.109-18.324,36.653-18.324c15.766,0,30.235,7.97,38.703,21.316
	c2.057,3.244,6.113,4.593,9.7,3.225c5.207-1.98,10.681-2.985,16.271-2.985c21.702,0,40.582,15.41,44.892,36.64
	c0.764,3.767,4.077,6.476,7.923,6.476h17.248c16.344,0,29.642,13.298,29.642,29.642c0,16.344-13.298,29.643-29.642,29.643h-3.953
	H51.2c-19.317,0-35.032-15.715-35.032-35.032v-43.116c0-0.188,0.015-0.305,0.025-0.37c0.335-0.303,2.973-2.325,13.449-2.325
	c21.702,0,40.582,15.41,44.892,36.64c0.764,3.767,4.077,6.476,7.923,6.476h17.248c11.942,0,22.664,7.108,27.315,18.102
	c0.702,1.663,1.254,3.393,1.637,5.144c0.958,4.36,5.264,7.118,9.63,6.164c4.361-0.957,7.121-5.269,6.164-9.63
	c-0.596-2.716-1.45-5.397-2.537-7.973c-7.191-16.994-23.758-27.976-42.209-27.976H88.693c-8.094-25.341-31.946-43.116-59.051-43.116
	C5.143,398.821,0,409.079,0,417.684V460.8C0,489.031,22.969,512,51.2,512h194.021c4.466,0,8.084-3.618,8.084-8.084
	s-3.618-8.084-8.084-8.084h-13.618c6.805-7.996,10.923-18.345,10.923-29.642c0-25.26-20.55-45.811-45.811-45.811h-11.012
	c-8.094-25.341-31.946-43.116-59.051-43.116c-5.054,0-10.04,0.615-14.897,1.819l13.45-29.93
	c20.917,9.091,43.542,13.807,66.864,13.807c23.303,0,45.938-4.716,66.863-13.808l17.477,38.89h-74.305
	c-4.466,0-8.084,3.618-8.084,8.084c0,4.466,3.618,8.084,8.084,8.084h86.775c0.01,0,0.019,0.002,0.029,0.002
	c0.013,0,0.027-0.002,0.04-0.002h12.861v38.196c-0.844-0.299-1.748-0.47-2.695-0.47H256c-4.466,0-8.084,3.618-8.084,8.084
	s3.618,8.084,8.084,8.084h43.116c0.946,0,1.851-0.171,2.695-0.47v35.502c0,0.917,0.088,1.812,0.216,2.695h-24.468
	c-4.466,0-8.084,3.618-8.084,8.084s3.618,8.084,8.084,8.084h101.681c4.466,0,8.084-3.618,8.084-8.084s-3.618-8.084-8.084-8.084
	h-19.43l39.012-45.515v53.599c0,4.466,3.618,8.084,8.084,8.084h86.232c10.401,0,18.863-8.463,18.863-18.863v-97.01
	C512,392.687,509.849,389.757,506.821,388.589z M83.953,197.412c0-59.617,48.501-108.118,108.118-108.118
	c59.616,0,108.117,48.501,108.117,108.118c0,38.491-20.221,72.343-50.594,91.505l-29.465-65.572
	c6.308-6.82,10.173-15.932,10.173-25.933c0-21.08-17.149-38.231-38.23-38.231s-38.231,17.15-38.231,38.231
	c0,10.001,3.865,19.113,10.173,25.933l-29.465,65.572C104.174,269.755,83.953,235.904,83.953,197.412z M177.511,232.755
	c4.491,1.857,9.407,2.888,14.56,2.888c5.153,0,10.07-1.032,14.56-2.888l28.649,63.755c-13.241,5.796-27.854,9.02-43.208,9.02
	s-29.968-3.224-43.208-9.02L177.511,232.755z M170.009,197.412c0-12.165,9.897-22.062,22.062-22.062
	c12.164,0,22.061,9.897,22.061,22.062s-9.897,22.062-22.061,22.062C179.905,219.474,170.009,209.578,170.009,197.412z
	 M192.07,346.79c-21.007,0-41.378-4.252-60.226-12.411l10.39-23.122c15.265,6.708,32.121,10.442,49.835,10.442
	s34.571-3.734,49.835-10.442l10.388,23.117C233.439,342.533,213.06,346.79,192.07,346.79z M398.821,425.473l-60.307,70.358h-11.912
	h-5.928c-1.486,0-2.695-1.208-2.695-2.695v-88.926h80.842V425.473z M495.832,493.137c0,1.486-1.208,2.695-2.695,2.695h-78.147
	v-91.621h13.204c4.466,0,8.084-3.618,8.084-8.084c0-4.466-3.618-8.084-8.084-8.084h-85.475
	c21.211-12.919,40.368-28.82,57.197-47.519c1.808-2.007,4.289-3.113,6.988-3.113c2.699,0,5.181,1.105,6.988,3.113
	c16.829,18.699,35.987,34.6,57.197,47.519h-16.487c-4.466,0-8.084,3.618-8.084,8.084c0,4.466,3.618,8.084,8.084,8.084h41.229
	V493.137z M256,194.021c4.466,0,8.084,3.618,8.084,8.084v1.078c0,4.466-3.618,8.084-8.084,8.084s-8.084-3.618-8.084-8.084v-1.078
	C247.916,197.64,251.534,194.021,256,194.021z M237.137,138.509v-1.078c0-4.466,3.618-8.084,8.084-8.084
	c4.466,0,8.084,3.618,8.084,8.084v1.078c0,4.466-3.618,8.084-8.084,8.084C240.755,146.594,237.137,142.975,237.137,138.509z
	 M123.958,180.547v1.078c0,4.466-3.618,8.084-8.084,8.084s-8.084-3.618-8.084-8.084v-1.078c0-4.466,3.618-8.084,8.084-8.084
	S123.958,176.082,123.958,180.547z M512,191.326v1.078c0,4.466-3.618,8.084-8.084,8.084s-8.084-3.618-8.084-8.084v-1.078
	c0-4.466,3.618-8.084,8.084-8.084S512,186.861,512,191.326z M512,299.116c0,4.466-3.618,8.084-8.084,8.084H385.347
	c-4.466,0-8.084-3.618-8.084-8.084s3.618-8.084,8.084-8.084h45.811V98.627c0-4.466,3.618-8.084,8.084-8.084
	c4.466,0,8.084,3.618,8.084,8.084v192.404h16.168V98.986c0-4.466,3.618-8.084,8.084-8.084s8.084,3.618,8.084,8.084v192.045h24.253
	C508.382,291.032,512,294.65,512,299.116z M31.998,300.879v1.998c0,15.485,12.598,28.083,28.082,28.083
	c15.485,0,28.083-12.598,28.083-28.083v-1.998c0-9.972-8.111-18.084-18.083-18.084h-1.897
	c-10.906-15.329-18.772-32.305-23.38-50.506c-1.096-4.328-5.499-6.949-9.821-5.853c-4.329,1.096-6.948,5.493-5.853,9.821
	c4.187,16.536,10.805,32.154,19.71,46.601C39.448,283.5,31.998,291.326,31.998,300.879z M48.167,300.879
	c0-1.056,0.859-1.915,1.914-1.915H70.08c1.055,0,1.914,0.859,1.914,1.915v1.998c0,6.57-5.345,11.915-11.915,11.915
	s-11.914-5.345-11.914-11.915v-1.998H48.167z M0,342.232v-1.078c0-4.466,3.618-8.084,8.084-8.084s8.084,3.618,8.084,8.084v1.078
	c0,4.466-3.618,8.084-8.084,8.084S0,346.697,0,342.232z M75.453,29.642v-1.078c0-4.466,3.618-8.084,8.084-8.084
	c4.466,0,8.084,3.618,8.084,8.084v1.078c0,4.466-3.618,8.084-8.084,8.084C79.071,37.726,75.453,34.108,75.453,29.642z
	 M192.07,50.982c15.484,0,28.082-12.598,28.082-28.082V20.9c0-9.972-8.111-18.084-18.083-18.084H182.07
	c-9.972,0-18.083,8.112-18.083,18.084V22.9C163.988,38.384,176.585,50.982,192.07,50.982z M180.156,20.9
	c0-1.056,0.859-1.915,1.914-1.915h19.999c1.055,0,1.914,0.859,1.914,1.915V22.9c0,6.57-5.344,11.914-11.914,11.914
	c-6.57,0-11.915-5.344-11.915-11.914V20.9H180.156z M60.08,106.978c13.635,0,25.027-9.769,27.555-22.675
	c0.487-0.288,0.954-0.625,1.387-1.025c18.317-16.92,40.68-29.165,64.672-35.41c4.32-1.124,6.911-5.539,5.786-9.86
	c-1.123-4.32-5.534-6.911-9.859-5.786c-23.856,6.209-46.242,17.788-65.24,33.646c-3.31-4.284-8.481-7.058-14.3-7.058H50.081
	c-9.972,0-18.083,8.112-18.083,18.084v1.999C31.998,94.38,44.596,106.978,60.08,106.978z M48.167,76.896
	c0-1.056,0.859-1.915,1.914-1.915H70.08c1.055,0,1.914,0.859,1.914,1.915v1.999c0,6.57-5.345,11.914-11.915,11.914
	s-11.914-5.344-11.914-11.914v-1.999H48.167z M0,14.013v-1.078c0-4.466,3.618-8.084,8.084-8.084s8.084,3.618,8.084,8.084v1.078
	c0,4.466-3.618,8.084-8.084,8.084S0,18.478,0,14.013z M28.083,218.97c15.484,0,28.082-12.598,28.082-28.082v-1.999
	c0-8.624-6.073-15.847-14.164-17.644c2.226-14.259,6.457-28.066,12.63-41.139c1.907-4.037,0.179-8.855-3.859-10.762
	c-4.036-1.906-8.856-0.179-10.762,3.859c-7.131,15.102-11.925,31.088-14.293,47.602h-7.634C8.111,170.803,0,178.915,0,188.887v1.999
	C0,206.372,12.598,218.97,28.083,218.97z M16.168,188.887c0-1.056,0.859-1.915,1.914-1.915h19.999c1.055,0,1.914,0.859,1.914,1.915
	v1.999c0,6.57-5.344,11.914-11.914,11.914s-11.914-5.343-11.914-11.913V188.887z"/>
<g>
</g>
<g>
</g>
<g>
</g>
<g>
</g>
<g>
</g>
<g>
</g>
<g>
</g>
<g>
</g>
<g>
</g>
<g>
</g>
<g>
</g>
<g>
</g>
<g>
</g>
<g>
</g>
<g>
</g>
</svg>
