<?xml version="1.0" encoding="iso-8859-1"?>
<!-- Generator: Adobe Illustrator 19.0.0, SVG Export Plug-In . SVG Version: 6.00 Build 0)  -->
<svg version="1.1" id="Layer_1" xmlns="http://www.w3.org/2000/svg" xmlns:xlink="http://www.w3.org/1999/xlink" x="0px" y="0px"
	 viewBox="0 0 512 512" style="enable-background:new 0 0 512 512;" xml:space="preserve">
<path style="fill:#43B05C;" d="M71.258,419.629h369.485l0.95,0.845C396.299,471.779,329.897,504.082,256,504.082
	s-140.299-32.303-185.692-83.609L71.258,419.629z"/>
<path style="fill:#31C0D8;" d="M504.082,256c0,63.129-23.541,120.663-62.39,164.473l-0.95-0.845H71.258l-0.95,0.845
	C31.459,376.663,7.918,319.129,7.918,256C7.918,118.974,118.974,7.918,256,7.918S504.082,118.974,504.082,256z M424.907,145.155
	c0-23.33-18.896-42.227-42.227-42.227c-6.545,0-12.668,1.584-18.158,4.223c-7.39-26.708-31.881-46.449-61.018-46.449
	c-29.77,0-54.684,20.586-61.44,48.139l-2.322-0.633c-11.085-9.818-25.758-15.835-41.805-15.835
	c-32.092,0-58.484,23.858-62.707,54.684c-3.484-1.161-7.284-1.9-11.19-1.9c-20.374,0-36.948,16.574-36.948,36.948
	s16.574,36.948,36.948,36.948c12.985,0,138.715,0,153.072,0c19.635,0,36.209-13.407,40.854-31.67c30.403,0,58.379,0,64.713,0
	C406.011,187.381,424.907,168.485,424.907,145.155z"/>
<path style="fill:#00A45E;" d="M207.545,420.473c-0.241-0.271-0.445-0.572-0.685-0.845H71.258l-0.95,0.845
	c45.394,51.306,111.795,83.609,185.692,83.609c23.807,0,46.819-3.396,68.619-9.656C278.753,481.254,238.314,455.249,207.545,420.473
	z"/>
<path style="fill:#00B4D7;" d="M206.86,419.629c-38.42-43.708-61.705-100.89-61.705-163.629c0-12.558,0.952-24.892,2.752-36.948
	c-12.037,0-20.903,0-23.866,0c-20.374,0-36.948-16.574-36.948-36.948s16.574-36.948,36.948-36.948c3.906,0,7.706,0.739,11.19,1.9
	c4.223-30.826,30.614-54.684,62.707-54.684c2.814,0,5.521,0.41,8.238,0.767c30.973-35.547,71.889-62.159,118.442-75.533
	C302.818,11.342,279.816,7.918,256,7.918C118.974,7.918,7.918,118.974,7.918,256c0,63.129,23.541,120.663,62.39,164.473l0.95-0.845
	H206.86z"/>
<path style="fill:#31C0D8;" d="M207.545,420.473l0.95-0.845h-1.635C207.098,419.901,207.304,420.202,207.545,420.473z"/>
<path style="fill:#F1F2F2;" d="M364.523,107.151c5.49-2.639,11.612-4.223,18.158-4.223c23.33,0,42.227,18.896,42.227,42.227
	s-18.896,42.227-42.227,42.227c-6.334,0-34.309,0-64.713,0c-38.638,0-81.075,0-88.36,0c-20.374,0-36.948-16.574-36.948-36.948
	s16.574-36.948,36.948-36.948c3.906,0,7.706,0.739,11.19,1.9c0.106-0.528,0.106-1.056,0.317-1.584
	c0.211-1.689,0.528-3.378,0.95-4.962c6.756-27.553,31.67-48.139,61.44-48.139C332.642,60.701,357.133,80.442,364.523,107.151z"/>
<path style="fill:#E7ECED;" d="M241.115,113.801c-0.211,0.528-0.211,1.056-0.317,1.584c-3.484-1.161-7.284-1.9-11.19-1.9
	c-20.374,0-36.948,16.574-36.948,36.948s16.574,36.948,36.948,36.948c7.284,0,49.722,0,88.36,0
	c-4.645,18.263-21.219,31.67-40.854,31.67c-14.357,0-140.087,0-153.072,0c-20.374,0-36.948-16.574-36.948-36.948
	s16.574-36.948,36.948-36.948c3.906,0,7.706,0.739,11.19,1.9c4.223-30.826,30.614-54.684,62.707-54.684
	c16.046,0,30.72,6.017,41.805,15.835l2.322,0.633C241.643,110.423,241.326,112.112,241.115,113.801z"/>
<path d="M437.025,74.976C388.676,26.627,324.386,0,256,0c-40.202,0-78.688,9.054-114.387,26.911l7.085,14.162
	C182.177,24.326,218.28,15.835,256,15.835c64.156,0,124.469,24.98,169.828,70.337c45.358,45.358,70.337,105.67,70.337,169.828
	c0,57.199-20.338,112.302-57.356,155.711h-71.961v15.835h57.182c-44.675,43.79-104.996,68.619-168.03,68.619
	c-63.032,0-123.351-24.826-168.03-68.619h257.763v-15.835H73.191C36.174,368.307,15.835,313.203,15.835,256
	c0-38.48,9.314-76.737,26.936-110.632c17.058-32.813,41.908-61.704,71.862-83.549l-9.33-12.795
	c-31.919,23.278-58.402,54.067-76.583,89.038C9.932,174.206,0,214.987,0,256c0,62.629,22.865,122.905,64.377,169.72
	C112.891,480.552,182.735,512,256,512s143.109-31.448,191.617-86.274C489.135,378.905,512,318.629,512,256
	C512,187.614,485.373,123.324,437.025,74.976z"/>
<path d="M79.175,182.103c0,24.74,20.126,44.866,44.866,44.866h153.072c20.816,0,39.176-12.748,46.605-31.67h58.962
	c27.649,0,50.144-22.495,50.144-50.144S410.329,95.01,382.68,95.01c-4.516,0-8.975,0.624-13.332,1.862
	c-10.881-26.338-36.842-44.089-65.843-44.089c-29.215,0-54.902,17.592-65.758,43.883c-11.686-7.92-25.524-12.213-39.809-12.213
	c-32.52,0-60.751,22.299-68.871,53.101c-1.687-0.211-3.364-0.318-5.026-0.318C99.302,137.237,79.175,157.363,79.175,182.103z
	 M303.505,68.619c22.779,0,43.14,14.092,51.448,34.918c-8.456,5.413-23.103,16.999-27.459,34.42l15.363,3.841
	c4.247-16.99,24.477-27.201,25.097-27.511c4.748-2.282,9.704-3.44,14.726-3.44c18.919,0,34.309,15.392,34.309,34.309
	s-15.391,34.308-34.309,34.308H229.608c-16.007,0-29.031-13.023-29.031-29.031s13.024-29.031,29.031-29.031
	c2.79,0,5.711,0.502,8.687,1.494l7.816,2.605c5.695,3.689,13.051,9.697,19.149,18.787l13.15-8.821
	c-9.233-13.764-20.922-21.887-28.314-26.016C256.612,85.345,278.38,68.619,303.505,68.619z M124.041,153.072
	c2.789,0,5.71,0.502,8.684,1.493c5.747,1.957,22.77,9.698,26.032,19.484l15.022-5.007c-4.674-14.024-20.374-22.837-29.525-26.914
	c6.123-24.231,28.204-41.839,53.684-41.839c8.646,0,17.077,2.028,24.674,5.827c-21.428,3.37-37.87,21.958-37.87,44.317
	c0,24.74,20.126,44.866,44.866,44.866h76.421c-6.143,9.661-16.93,15.835-28.916,15.835H124.041
	c-16.007,0-29.031-13.023-29.031-29.031S108.034,153.072,124.041,153.072z"/>
<rect x="248.082" y="256" style="fill:#FFFFFF;" width="15.835" height="31.67"/>
<rect x="353.65" y="256" width="15.835" height="31.67"/>
<g>
	<rect x="142.515" y="256" style="fill:#FFFFFF;" width="15.835" height="31.67"/>
	<rect x="168.907" y="298.227" style="fill:#FFFFFF;" width="15.835" height="31.67"/>
</g>
<rect x="221.691" y="298.227" width="15.835" height="31.67"/>
<rect x="274.474" y="298.227" width="15.835" height="31.67"/>
<rect x="327.258" y="298.227" width="15.835" height="31.67"/>
<rect x="195.299" y="256" width="15.835" height="31.67"/>
<g>
	<rect x="300.866" y="256" style="fill:#FFFFFF;" width="15.835" height="31.67"/>
	<rect x="248.082" y="340.454" style="fill:#FFFFFF;" width="15.835" height="31.67"/>
	<rect x="353.65" y="340.454" style="fill:#FFFFFF;" width="15.835" height="31.67"/>
	<rect x="142.515" y="340.454" style="fill:#FFFFFF;" width="15.835" height="31.67"/>
</g>
<rect x="195.299" y="340.454" width="15.835" height="31.67"/>
<rect x="300.866" y="340.454" width="15.835" height="31.67"/>
<rect x="187.381" y="448.66" width="73.897" height="15.835"/>
<rect x="282.392" y="448.66" width="42.227" height="15.835"/>
<path d="M424.132,365.755c19.498-31.291,29.806-67.418,29.806-104.477h-15.835c0,34.094-9.479,67.325-27.41,96.101L424.132,365.755z
	"/>
<path d="M448.979,217.243l-15.417,3.617c1.898,8.092,3.223,16.581,3.936,25.234l15.781-1.3
	C452.502,235.363,451.055,226.094,448.979,217.243z"/>
<path d="M58.062,261.278c0,45.798,15.211,88.807,43.989,124.376l12.311-9.96c-26.472-32.718-40.465-72.283-40.465-114.416H58.062z"
	/>
<g>
</g>
<g>
</g>
<g>
</g>
<g>
</g>
<g>
</g>
<g>
</g>
<g>
</g>
<g>
</g>
<g>
</g>
<g>
</g>
<g>
</g>
<g>
</g>
<g>
</g>
<g>
</g>
<g>
</g>
</svg>
