<?xml version="1.0" encoding="iso-8859-1"?>
<!-- Generator: Adobe Illustrator 19.0.0, SVG Export Plug-In . SVG Version: 6.00 Build 0)  -->
<svg version="1.1" id="Layer_1" xmlns="http://www.w3.org/2000/svg" xmlns:xlink="http://www.w3.org/1999/xlink" x="0px" y="0px"
	 viewBox="0 0 512 512" style="enable-background:new 0 0 512 512;" xml:space="preserve">
<rect x="209.546" y="189.067" style="fill:#797882;" width="97.077" height="317.451"/>
<rect x="255.569" y="189.067" style="fill:#2D2E30;" width="51.065" height="317.451"/>
<path style="fill:#E61F00;" d="M451.604,512H65.699c-9.082,0-16.444-7.363-16.444-16.444c0-9.082,7.363-16.444,16.444-16.444
	h385.905c9.082,0,16.444,7.363,16.444,16.444C468.048,504.637,460.686,512,451.604,512z"/>
<rect x="102.829" y="239.798" style="fill:#797882;" width="32.89" height="107.994"/>
<rect x="118.622" y="239.798" style="fill:#2D2E30;" width="17.095" height="107.994"/>
<rect x="380.199" y="237.055" style="fill:#797882;" width="32.89" height="107.994"/>
<rect x="395.458" y="237.055" style="fill:#2D2E30;" width="17.628" height="107.994"/>
<path style="fill:#9D2217;" d="M311.732,49.091c0.583,0.97,0.6,2.178,0.042,3.162c-0.558,0.984-1.6,1.594-2.732,1.594h-54.057V17.37
	h54.057c1.132,0,2.175,0.609,2.732,1.594c0.557,0.985,0.541,2.192-0.042,3.162l-8.111,13.483L311.732,49.091z"/>
<circle style="fill:#C6C5CA;" cx="120.732" cy="219.352" r="33.817"/>
<circle style="fill:#797882;" cx="391.271" cy="219.352" r="33.817"/>
<polygon style="fill:#E61F00;" points="255.999,61.286 19.276,219.354 492.724,219.354 "/>
<g>
	<path style="fill:#9D2217;" d="M86.912,219.354c0,18.677-15.141,33.817-33.817,33.817s-33.817-15.141-33.817-33.817H86.912z"/>
	<circle style="fill:#9D2217;" cx="188.367" cy="219.352" r="33.817"/>
</g>
<circle style="fill:#C6C5CA;" cx="256.002" cy="219.352" r="33.817"/>
<g>
	<circle style="fill:#9D2217;" cx="323.636" cy="219.352" r="33.817"/>
	<path style="fill:#9D2217;" d="M492.724,219.354c0,18.677-15.141,33.817-33.817,33.817c-18.677,0-33.817-15.141-33.817-33.817
		H492.724z"/>
</g>
<polygon points="222.182,219.354 255.999,61.286 289.818,219.354 "/>
<polygon style="fill:#E61F00;" points="222.182,219.354 154.547,219.354 255.999,61.286 "/>
<g>
	<polygon style="fill:#EFEFEF;" points="86.912,219.354 255.999,61.286 154.547,219.354 	"/>
	<polygon style="fill:#EFEFEF;" points="289.818,219.354 255.999,61.286 222.182,219.354 	"/>
</g>
<polygon style="fill:#E61F00;" points="289.818,219.354 357.453,219.354 255.999,61.286 "/>
<polygon style="fill:#C6C5CA;" points="425.088,219.354 255.999,61.286 357.453,219.354 "/>
<path style="fill:#2D2E30;" d="M254.987,91.481c-9.593,0-17.37-7.776-17.37-17.37V17.37c0-9.593,7.776-17.37,17.37-17.37
	s17.37,7.776,17.37,17.37v56.742C272.356,83.705,264.58,91.481,254.987,91.481z"/>
<path style="fill:#E61F00;" d="M206.908,94.066c10.592,15.841,28.638,26.277,49.125,26.277c20.474,0,38.511-10.422,49.106-26.247
	l-49.138-32.811L206.908,94.066z"/>
<g>
	<path style="fill:#9D2217;" d="M255.999,61.286v59.057c0.011,0,0.021,0.001,0.032,0.001c20.474,0,38.511-10.422,49.106-26.247
		L255.999,61.286z"/>
	<path style="fill:#9D2217;" d="M451.604,479.11H255.549V512h196.055c9.082,0,16.444-7.363,16.444-16.444
		C468.048,486.473,460.686,479.11,451.604,479.11z"/>
</g>
<path style="fill:#F7DC4D;" d="M215.608,358.755c1.325-1.203,2.021-2.947,1.891-4.732c-0.44-6.066-1.549-20.434-2.735-28.729
	c-0.721-5.041-3.497-12.445-8.062-16.151c-0.113-0.092-0.234-0.197-0.35-0.292l-0.476-16.259c-0.024-0.843-0.572-1.583-1.37-1.852
	c-0.8-0.27-1.683-0.014-2.213,0.641l-10.008,12.351c-6.12,0.076-13.654,2.664-20.154,11.975
	c-29.346,42.032-76.555,11.475-97.113,34.858c-0.107,0.122-0.224,0.305-0.346,0.518c-6.233-2.042-12.2-3.251-19.848-0.362
	c-9.257,3.473-11.09,7.413-28.6,30.821c-0.645,0.863-0.904,1.955-0.715,3.016c0.189,1.061,0.807,1.999,1.71,2.587l14.894,9.674
	c0.906,0.589,2.017,0.774,3.065,0.512c1.048-0.262,1.94-0.948,2.464-1.894c14.576-26.294,13.425-24.676,15.144-25.827
	c1.408-0.948,2.936-1.314,6.274-0.713c-1.927,7.384-9.195,57.206-11.405,72.503c-0.162,1.118,0.171,2.252,0.911,3.106
	c0.74,0.854,1.815,1.35,2.944,1.35h7.232c1.406,0,2.703-0.757,3.393-1.982l22.045-39.117c2.177-3.862,6.265-6.25,10.698-6.25h40.961
	c4.439,0,8.532,2.396,10.706,6.265l21.966,39.098c0.69,1.227,1.988,1.987,3.396,1.987h5.234c1.193,0,2.32-0.546,3.059-1.484
	c0.739-0.936,1.007-2.16,0.73-3.321c-2.558-10.698-8.804-36.74-12.623-51.977c-2.137-8.52-0.977-17.53,3.218-25.247
	c1.413-2.599,2.866-5.272,4.167-7.665c1.026-1.888,2.9-3.164,5.032-3.43c2.132-0.264,4.261,0.515,5.718,2.095l6.79,7.362
	c2.166,2.349,5.821,2.511,8.186,0.363L215.608,358.755z"/>
<path style="fill:#EA971E;" d="M489.584,358.755c1.325-1.203,2.021-2.947,1.891-4.732c-0.44-6.066-1.549-20.434-2.735-28.729
	c-0.721-5.041-3.497-12.445-8.062-16.151c-0.113-0.092-0.234-0.197-0.35-0.292l-0.476-16.259c-0.024-0.843-0.572-1.583-1.37-1.852
	c-0.8-0.27-1.683-0.014-2.213,0.641l-10.008,12.351c-6.12,0.076-13.654,2.664-20.154,11.975
	c-29.346,42.032-76.555,11.475-97.113,34.858c-0.107,0.122-0.224,0.305-0.346,0.518c-6.233-2.042-12.2-3.251-19.848-0.362
	c-9.257,3.473-11.09,7.413-28.6,30.821c-0.645,0.863-0.904,1.955-0.715,3.016c0.189,1.061,0.807,1.999,1.71,2.587l14.894,9.674
	c0.906,0.589,2.017,0.774,3.065,0.512c1.048-0.262,1.94-0.948,2.464-1.894c14.576-26.294,13.425-24.676,15.144-25.827
	c1.408-0.948,2.936-1.314,6.274-0.713c-1.927,7.384-9.195,57.206-11.405,72.503c-0.162,1.118,0.171,2.252,0.911,3.106
	c0.74,0.854,1.815,1.35,2.944,1.35h7.232c1.406,0,2.703-0.757,3.393-1.982l22.045-39.117c2.177-3.862,6.265-6.25,10.698-6.25h40.961
	c4.439,0,8.532,2.396,10.706,6.265l21.966,39.098c0.69,1.227,1.988,1.987,3.396,1.987h5.234c1.193,0,2.32-0.546,3.059-1.484
	c0.739-0.936,1.007-2.16,0.73-3.321c-2.558-10.698-8.804-36.74-12.623-51.977c-2.137-8.52-0.977-17.53,3.219-25.247
	c1.413-2.599,2.866-5.272,4.167-7.665c1.026-1.888,2.9-3.164,5.032-3.43c2.132-0.264,4.261,0.515,5.718,2.095l6.79,7.362
	c2.166,2.349,5.821,2.511,8.186,0.363L489.584,358.755z"/>
<g>
</g>
<g>
</g>
<g>
</g>
<g>
</g>
<g>
</g>
<g>
</g>
<g>
</g>
<g>
</g>
<g>
</g>
<g>
</g>
<g>
</g>
<g>
</g>
<g>
</g>
<g>
</g>
<g>
</g>
</svg>
