<?xml version="1.0" encoding="iso-8859-1"?>
<!-- Generator: Adobe Illustrator 19.0.0, SVG Export Plug-In . SVG Version: 6.00 Build 0)  -->
<svg version="1.1" id="Layer_1" xmlns="http://www.w3.org/2000/svg" xmlns:xlink="http://www.w3.org/1999/xlink" x="0px" y="0px"
	 viewBox="0 0 512 512" style="enable-background:new 0 0 512 512;" xml:space="preserve">
<g>
	<rect x="412.735" y="177.633" style="fill:#F1F2F2;" width="57.469" height="62.694"/>
	<rect x="412.735" y="240.327" style="fill:#F1F2F2;" width="57.469" height="62.694"/>
	<rect x="412.735" y="303.02" style="fill:#F1F2F2;" width="57.469" height="62.694"/>
</g>
<rect x="360.49" y="303.02" style="fill:#31C0D8;" width="52.245" height="62.694"/>
<g>
	<rect x="360.49" y="240.327" style="fill:#F1F2F2;" width="52.245" height="62.694"/>
	<rect x="360.49" y="177.633" style="fill:#F1F2F2;" width="52.245" height="62.694"/>
	<rect x="308.245" y="177.633" style="fill:#F1F2F2;" width="52.245" height="62.694"/>
</g>
<rect x="308.245" y="240.327" style="fill:#31C0D8;" width="52.245" height="62.694"/>
<g>
	<rect x="308.245" y="303.02" style="fill:#F1F2F2;" width="52.245" height="62.694"/>
	<rect x="256" y="303.02" style="fill:#F1F2F2;" width="52.245" height="62.694"/>
	<rect x="256" y="240.327" style="fill:#F1F2F2;" width="52.245" height="62.694"/>
</g>
<rect x="256" y="177.633" style="fill:#31C0D8;" width="52.245" height="62.694"/>
<rect x="203.755" y="177.633" style="fill:#F1F2F2;" width="52.245" height="62.694"/>
<rect x="203.755" y="240.327" style="fill:#31C0D8;" width="52.245" height="62.694"/>
<rect x="203.755" y="303.02" style="fill:#F1F2F2;" width="52.245" height="62.694"/>
<rect x="151.51" y="303.02" style="fill:#31C0D8;" width="52.245" height="62.694"/>
<g>
	<rect x="151.51" y="240.327" style="fill:#F1F2F2;" width="52.245" height="62.694"/>
	<rect x="151.51" y="177.633" style="fill:#F1F2F2;" width="52.245" height="62.694"/>
	<rect x="99.265" y="177.633" style="fill:#F1F2F2;" width="52.245" height="62.694"/>
</g>
<rect x="99.265" y="240.327" style="fill:#31C0D8;" width="52.245" height="62.694"/>
<g>
	<rect x="99.265" y="303.02" style="fill:#F1F2F2;" width="52.245" height="62.694"/>
	<rect x="41.796" y="303.02" style="fill:#F1F2F2;" width="57.469" height="62.694"/>
	<rect x="41.796" y="240.327" style="fill:#F1F2F2;" width="57.469" height="62.694"/>
</g>
<rect x="41.796" y="177.633" style="fill:#31C0D8;" width="57.469" height="62.694"/>
<path style="fill:#F4661E;" d="M370.939,31.347c20.163,0,36.571,16.408,36.571,36.571s-16.408,36.571-36.571,36.571
	s-36.571-16.408-36.571-36.571S350.775,31.347,370.939,31.347z"/>
<g>
	<polygon style="fill:#BCBEC0;" points="10.449,512 10.449,146.286 41.796,146.286 41.796,177.633 41.796,240.327 41.796,303.02 
		41.796,365.714 41.796,412.735 41.796,512 	"/>
	<polygon style="fill:#BCBEC0;" points="501.551,146.286 501.551,512 470.204,512 470.204,412.735 470.204,365.714 470.204,303.02 
		470.204,240.327 470.204,177.633 470.204,146.286 	"/>
</g>
<path style="fill:#FFD248;" d="M470.204,512H41.796v-99.265h20.898c86.204,0,86.204,20.898,172.408,20.898
	s86.204-20.898,172.408-20.898h62.694V512z"/>
<g>
	<path style="fill:#231F20;" d="M501.551,135.837h-31.347c-5.771,0-10.449,4.678-10.449,10.449v20.898H52.245v-20.898
		c0-5.771-4.678-10.449-10.449-10.449H10.449C4.678,135.837,0,140.515,0,146.286V512h20.898V156.735h10.449v20.898v188.082V512
		h20.898v-88.816h10.449c41.853,0,62.201,4.933,83.742,10.155c21.787,5.281,44.315,10.743,88.666,10.743s66.879-5.462,88.666-10.743
		c21.542-5.222,41.889-10.155,83.742-10.155h52.245V512h20.898V365.714V177.633v-20.898h10.449V512H512V146.286
		C512,140.515,507.322,135.837,501.551,135.837z M161.959,250.775h31.347v41.796h-31.347V250.775z M141.061,292.571h-31.347v-41.796
		h31.347V292.571z M214.204,250.775h31.347v41.796h-31.347V250.775z M266.449,250.775h31.347v41.796h-31.347V250.775z
		 M318.694,250.775h31.347v41.796h-31.347V250.775z M370.939,250.775h31.347v41.796h-31.347V250.775z M370.939,229.878v-41.796
		h31.347v41.796H370.939z M350.041,229.878h-31.347v-41.796h31.347V229.878z M297.796,229.878h-31.347v-41.796h31.347V229.878z
		 M245.551,229.878h-31.347v-41.796h31.347V229.878z M193.306,229.878h-31.347v-41.796h31.347V229.878z M141.061,229.878h-31.347
		v-41.796h31.347V229.878z M88.816,229.878H52.245v-41.796h36.571V229.878z M52.245,250.775h36.571v41.796H52.245V250.775z
		 M52.245,313.469h36.571v41.796H52.245V313.469z M109.714,313.469h31.347v41.796h-31.347V313.469z M161.959,313.469h31.347v41.796
		h-31.347V313.469z M214.204,313.469h31.347v41.796h-31.347V313.469z M266.449,313.469h31.347v41.796h-31.347V313.469z
		 M318.694,313.469h31.347v41.796h-31.347V313.469z M370.939,313.469h31.347v41.796h-31.347V313.469z M423.184,313.469h36.571
		v41.796h-36.571V313.469z M459.755,292.571h-36.571v-41.796h36.571V292.571z M459.755,229.878h-36.571v-41.796h36.571V229.878z
		 M407.51,402.286c-44.351,0-66.879,5.462-88.666,10.743c-21.542,5.222-41.889,10.155-83.742,10.155s-62.201-4.933-83.742-10.155
		c-21.787-5.281-44.315-10.743-88.666-10.743H52.245v-26.122h407.51v26.122H407.51z"/>
	<rect x="73.143" y="475.429" style="fill:#231F20;" width="20.898" height="20.898"/>
	<rect x="114.939" y="454.531" style="fill:#231F20;" width="20.898" height="20.898"/>
	<rect x="167.184" y="475.429" style="fill:#231F20;" width="20.898" height="20.898"/>
	<rect x="219.429" y="464.98" style="fill:#231F20;" width="20.898" height="20.898"/>
	<rect x="271.673" y="475.429" style="fill:#231F20;" width="20.898" height="20.898"/>
	<rect x="323.918" y="454.531" style="fill:#231F20;" width="20.898" height="20.898"/>
	<rect x="376.163" y="475.429" style="fill:#231F20;" width="20.898" height="20.898"/>
	<rect x="417.959" y="444.082" style="fill:#231F20;" width="20.898" height="20.898"/>
	<path style="fill:#231F20;" d="M331.15,92.929l-14.621,14.621l14.778,14.778l14.621-14.621c4.416,2.786,9.323,4.855,14.562,6.048
		v22.082h20.898v-22.083c5.239-1.194,10.146-3.262,14.562-6.048l14.621,14.621l14.778-14.778l-14.621-14.621
		c2.785-4.416,4.854-9.323,6.048-14.562h22.082V57.469h-22.083c-1.194-5.239-3.262-10.146-6.048-14.562l14.621-14.621L410.57,13.508
		L395.948,28.13c-4.416-2.786-9.323-4.855-14.562-6.048V0h-20.898v22.083c-5.239,1.194-10.146,3.262-14.562,6.048l-14.621-14.621
		l-14.778,14.778l14.621,14.621c-2.785,4.416-4.854,9.323-6.048,14.562H303.02v20.898h22.083
		C326.297,83.606,328.365,88.513,331.15,92.929z M370.939,41.796c14.404,0,26.122,11.719,26.122,26.122
		s-11.719,26.122-26.122,26.122c-14.404,0-26.122-11.719-26.122-26.122S356.535,41.796,370.939,41.796z"/>
	<path style="fill:#231F20;" d="M88.816,57.469c5.762,0,10.449,4.687,10.449,10.449h20.898c0-5.762,4.687-10.449,10.449-10.449
		c5.762,0,10.449,4.687,10.449,10.449h20.898c0-17.285-14.062-31.347-31.347-31.347c-8.023,0-15.349,3.032-20.898,8.008
		c-5.55-4.976-12.875-8.008-20.898-8.008c-17.285,0-31.347,14.062-31.347,31.347h20.898C78.367,62.157,83.055,57.469,88.816,57.469z
		"/>
	<path style="fill:#231F20;" d="M151.51,88.816c-17.285,0-31.347,14.062-31.347,31.347h20.898c0-5.762,4.687-10.449,10.449-10.449
		c5.762,0,10.449,4.687,10.449,10.449h20.898c0-5.762,4.687-10.449,10.449-10.449c5.762,0,10.449,4.687,10.449,10.449h20.898
		c0-17.285-14.062-31.347-31.347-31.347c-8.023,0-15.348,3.032-20.898,8.008C166.858,91.849,159.533,88.816,151.51,88.816z"/>
</g>
<g>
</g>
<g>
</g>
<g>
</g>
<g>
</g>
<g>
</g>
<g>
</g>
<g>
</g>
<g>
</g>
<g>
</g>
<g>
</g>
<g>
</g>
<g>
</g>
<g>
</g>
<g>
</g>
<g>
</g>
</svg>
