<?xml version="1.0" encoding="iso-8859-1"?>
<!-- Generator: Adobe Illustrator 19.0.0, SVG Export Plug-In . SVG Version: 6.00 Build 0)  -->
<svg version="1.1" id="Layer_1" xmlns="http://www.w3.org/2000/svg" xmlns:xlink="http://www.w3.org/1999/xlink" x="0px" y="0px"
	 viewBox="0 0 501.77 501.77" style="enable-background:new 0 0 501.77 501.77;" xml:space="preserve">
<circle style="fill:#5DD844;" cx="173.441" cy="333.37" r="168"/>
<path style="fill:#34B515;" d="M292.642,214.97c65.6,65.6,65.6,172,0,237.6s-172,65.6-237.6,0"/>
<g>
	<path style="fill:#EAE9DA;" d="M42.241,230.17c24.8,28,40,64,40,104s-15.2,76-40,104c4.8,6.4,10.4,12,16,17.6
		c29.6-32,47.2-75.2,47.2-121.6s-18.4-89.6-47.2-121.6C52.641,217.37,47.041,223.77,42.241,230.17z"/>
	<path style="fill:#EAE9DA;" d="M265.441,333.37c0-40,15.2-76,40-104c-4.8-6.4-10.4-12-16-17.6c-29.6,32-47.2,75.2-47.2,121.6
		c0,45.6,16.8,88,48,121.6c5.6-5.6,11.2-11.2,16-17.6C279.841,408.57,265.441,372.57,265.441,333.37z"/>
</g>
<g>
	<path style="fill:#CCCAB6;" d="M81.441,333.37c0,40-15.2,76-40,104c4.8,6.4,10.4,12,16,17.6c29.6-32,47.2-75.2,47.2-121.6"/>
	<path style="fill:#CCCAB6;" d="M241.441,333.37c0,45.6,16.8,88,48,121.6c5.6-5.6,11.2-11.2,16-17.6c-25.6-28.8-40-64.8-40-104"/>
</g>
<g>
	<path style="fill:#CE3838;" d="M491.042,487.77c0.8,3.2-0.8,7.2-4,8l-16.8,5.6c-3.2,0.8-6.4-0.8-8-4l-28.8-85.6
		c-0.8-3.2,0.8-7.2,4-8l16.8-5.6c3.2-0.8,6.4,0.8,8,4L491.042,487.77z"/>
	<polygon style="fill:#CE3838;" points="428.642,197.37 410.242,195.77 403.841,273.37 351.841,214.97 338.242,227.77 
		391.042,286.97 391.042,286.97 401.441,317.37 431.841,307.77 421.441,276.57 422.242,276.57 	"/>
</g>
<polyline style="fill:#AF2020;" points="391.042,286.97 391.042,286.97 401.441,317.37 431.841,307.77 422.242,276.57 
	422.242,276.57 428.642,197.37 410.242,195.77 403.841,273.37 "/>
<g>
	<path style="fill:#9B1B1B;" d="M359.841,223.77c-4.8,0-9.6-0.8-15.2-2.4l-7.2,6.4l20.8,23.2c8,0.8,16,0.8,24-0.8L359.841,223.77z"
		/>
	<path style="fill:#9B1B1B;" d="M428.642,197.37l-9.6-0.8c-3.2,4-6.4,8-10.4,11.2l-3.2,34.4c7.2-4,13.6-8,20-13.6L428.642,197.37z"
		/>
</g>
<path style="fill:#CE3838;" d="M314.242,6.17c-55.2,18.4-88,70.4-65.6,138.4s85.6,108,141.6,89.6c55.2-18.4,82.4-88.8,60-156
	C427.841,10.17,370.242-12.23,314.242,6.17z M381.441,207.77c-42.4,14.4-91.2-16.8-108.8-68.8s8-92.8,50.4-107.2
	c43.2-14.4,87.2,3.2,104.8,55.2C445.441,139.77,424.642,193.37,381.441,207.77z"/>
<path style="fill:#AF2020;" d="M390.242,234.17c55.2-18.4,82.4-88.8,60-156c-22.4-68-80-90.4-135.2-71.2 M323.042,31.77
	c43.2-14.4,87.2,3.2,104.8,55.2c17.6,52-3.2,106.4-46.4,120.8"/>
<g>
	<path style="fill:#8BD0D8;" d="M339.042,207.77c0.8,2.4-0.8,5.6-3.2,6.4l0,0c-2.4,0.8-5.6-0.8-6.4-3.2l-51.2-154.4
		c-0.8-2.4,0.8-5.6,3.2-6.4l0,0c2.4-0.8,5.6,0.8,6.4,3.2L339.042,207.77z"/>
	<path style="fill:#8BD0D8;" d="M387.841,210.17c0.8,3.2,0,6.4-3.2,7.2l0,0c-2.4,0.8-5.6-0.8-6.4-4l-61.6-184.8
		c-0.8-3.2,0-6.4,3.2-7.2l0,0c2.4-0.8,5.6,0.8,6.4,4L387.841,210.17z"/>
	<path style="fill:#8BD0D8;" d="M425.441,178.97c0.8,2.4-0.8,5.6-3.2,6.4l0,0c-2.4,0.8-5.6-0.8-6.4-3.2l-52-154.4
		c-0.8-2.4,0.8-5.6,3.2-6.4l0,0c2.4-0.8,5.6,0.8,6.4,3.2L425.441,178.97z"/>
</g>
<g>
	<path style="fill:#B0E2EA;" d="M434.242,134.17c2.4-0.8,4.8,0.8,6.4,3.2l0,0c0.8,2.4,0,5.6-3.2,6.4l-141.6,47.2
		c-2.4,0.8-4.8-0.8-6.4-3.2l0,0c-0.8-2.4,0-5.6,3.2-6.4L434.242,134.17z"/>
	<path style="fill:#B0E2EA;" d="M427.042,89.37c3.2-0.8,6.4,0,7.2,3.2l0,0c0.8,2.4-0.8,5.6-4,6.4l-152,50.4c-3.2,0.8-6.4,0-7.2-3.2
		l0,0c-0.8-2.4,0.8-5.6,4-6.4L427.042,89.37z"/>
	<path style="fill:#B0E2EA;" d="M406.242,48.57c2.4-0.8,4.8,0.8,6.4,3.2l0,0c0.8,2.4,0,5.6-3.2,6.4l-142.4,47.2
		c-2.4,0.8-4.8-0.8-6.4-3.2l0,0c-0.8-2.4,0-5.6,3.2-6.4L406.242,48.57z"/>
</g>
<path id="SVGCleanerId_0" style="fill:#515191;" d="M495.841,465.37c1.6,6.4-0.8,12.8-6.4,14.4l-30.4,10.4c-5.6,1.6-12-1.6-13.6-7.2
	l-50.4-152c-2.4-6.4,0.8-12.8,6.4-14.4l30.4-10.4c5.6-1.6,12,1.6,13.6,7.2L495.841,465.37z"/>
<g>
	<path id="SVGCleanerId_0_1_" style="fill:#515191;" d="M495.841,465.37c1.6,6.4-0.8,12.8-6.4,14.4l-30.4,10.4
		c-5.6,1.6-12-1.6-13.6-7.2l-50.4-152c-2.4-6.4,0.8-12.8,6.4-14.4l30.4-10.4c5.6-1.6,12,1.6,13.6,7.2L495.841,465.37z"/>
</g>
<path style="fill:#28284F;" d="M394.242,330.97c-2.4-6.4,0.8-12.8,6.4-14.4l30.4-10.4c5.6-1.6,12,1.6,13.6,7.2l50.4,152
	c1.6,6.4-0.8,12.8-6.4,14.4"/>
<g>
	
		<rect x="432.881" y="430.66" transform="matrix(0.9489 -0.3155 0.3155 0.9489 -115.931 167.6017)" style="fill:#EAE9DA;" width="53.599" height="22.399"/>
	
		<rect x="423.207" y="401.844" transform="matrix(0.9489 -0.3156 0.3156 0.9489 -107.3572 163.1306)" style="fill:#EAE9DA;" width="53.6" height="22.4"/>
	
		<rect x="413.166" y="372.302" transform="matrix(0.9489 -0.3156 0.3156 0.9489 -98.5472 158.4519)" style="fill:#EAE9DA;" width="53.6" height="22.4"/>
	
		<rect x="403.5" y="343.483" transform="matrix(0.9489 -0.3157 0.3157 0.9489 -89.965 153.9782)" style="fill:#EAE9DA;" width="53.602" height="22.401"/>
</g>
<g>
	<polyline style="fill:#CCCAB6;" points="488.642,444.57 481.441,422.97 430.242,439.77 	"/>
	<polyline style="fill:#CCCAB6;" points="479.042,414.97 471.841,393.37 420.642,410.97 	"/>
	<polyline style="fill:#CCCAB6;" points="469.441,386.17 462.242,364.57 411.042,381.37 	"/>
	<polyline style="fill:#CCCAB6;" points="459.841,356.57 452.642,334.97 401.441,351.77 	"/>
</g>
<rect x="403.136" y="284.183" transform="matrix(0.8944 0.4472 -0.4472 0.8944 172.7462 -152.1989)" style="fill:#B0E2EA;" width="11.2" height="11.2"/>
<g>
</g>
<g>
</g>
<g>
</g>
<g>
</g>
<g>
</g>
<g>
</g>
<g>
</g>
<g>
</g>
<g>
</g>
<g>
</g>
<g>
</g>
<g>
</g>
<g>
</g>
<g>
</g>
<g>
</g>
</svg>
